<?xml version="1.0" encoding="UTF-8" standalone="no"?>
<svg
   xmlns:dc="http://purl.org/dc/elements/1.1/"
   xmlns:cc="http://creativecommons.org/ns#"
   xmlns:rdf="http://www.w3.org/1999/02/22-rdf-syntax-ns#"
   xmlns:svg="http://www.w3.org/2000/svg"
   xmlns="http://www.w3.org/2000/svg"
   xmlns:sodipodi="http://sodipodi.sourceforge.net/DTD/sodipodi-0.dtd"
   xmlns:inkscape="http://www.inkscape.org/namespaces/inkscape"
   width="24"
   height="24"
   viewBox="0 0 24 24"
   version="1.1"
   id="svg827"
   sodipodi:docname="subscript.svg"
   inkscape:version="0.92.4 (5da689c313, 2019-01-14)">
  <metadata
     id="metadata833">
    <rdf:RDF>
      <cc:Work
         rdf:about="">
        <dc:format>image/svg+xml</dc:format>
        <dc:type
           rdf:resource="http://purl.org/dc/dcmitype/StillImage" />
        <dc:title></dc:title>
      </cc:Work>
    </rdf:RDF>
  </metadata>
  <defs
     id="defs831" />
  <sodipodi:namedview
     pagecolor="#ffffff"
     bordercolor="#666666"
     borderopacity="1"
     objecttolerance="10"
     gridtolerance="10"
     guidetolerance="10"
     inkscape:pageopacity="0"
     inkscape:pageshadow="2"
     inkscape:window-width="1366"
     inkscape:window-height="705"
     id="namedview829"
     showgrid="false"
     inkscape:zoom="12.020815"
     inkscape:cx="21.209716"
     inkscape:cy="15.558705"
     inkscape:window-x="-8"
     inkscape:window-y="-8"
     inkscape:window-maximized="1"
     inkscape:current-layer="svg827"
     inkscape:snap-grids="true" />
  <path
     d="m 13.487263,14.4021 v 2.604825 h -2.91574 L 8.7021554,13.07625 8.4199869,12.421125 Q 8.3259307,12.2808 8.2906597,12.0936 h -0.035271 q -0.011757,0.0465 -0.029393,0.1014 -0.017635,0.05475 -0.04115,0.124725 -0.023514,0.0705 -0.035271,0.1014 -0.1175703,0.312 -0.2939255,0.686325 L 6.0333116,17.006925 H 3 V 14.4021 H 4.5048988 L 6.821032,9.8630998 4.645983,5.6204248 H 3.035271 v -2.620425 h 3.244938 l 1.634226,3.55635 q 0.023514,0.06225 0.2704115,0.655125 0.094056,0.140325 0.1293272,0.327525 h 0.035271 q 0.035271,-0.1404 0.1293273,-0.327525 l 0.2939256,-0.655125 1.6459834,-3.55635 h 3.021555 v 2.620425 H 11.970608 L 9.8073156,9.7850998 12.205749,14.4021 Z M 21,17.78685 V 21 h -6.043109 l -0.04703,-0.421125 q -0.03527,-0.701925 -0.03527,-0.717525 0,-0.99825 0.305683,-1.824975 0.305683,-0.82665 0.764206,-1.349175 0.458524,-0.522525 0.98759,-1.013925 0.529066,-0.491325 0.98759,-0.85005 0.458524,-0.358725 0.764206,-0.842325 0.305683,-0.483525 0.305683,-0.99825 0,-0.592725 -0.346833,-0.97485 -0.346832,-0.382125 -0.82887,-0.382125 -0.599607,0 -1.140431,0.608325 -0.164598,0.171525 -0.423253,0.592725 l -1.234487,-1.43505 q 0.305683,-0.577125 0.740693,-1.02945 0.940561,-1.0138502 2.21032,-1.0138502 1.293272,0 2.09275,0.9280502 0.799477,0.92805 0.799477,2.4723 0,1.02945 -0.405617,1.8483 -0.405617,0.818925 -0.98759,1.34145 -0.581972,0.522525 -1.169824,0.97485 -0.587851,0.452325 -1.02286,0.982725 -0.43501,0.530325 -0.482038,1.138575 h 2.727628 V 17.78685 Z"
     id="path825"
     inkscape:connector-curvature="0"
     style="stroke-width:0.01354198" />
</svg>
