<?xml version="1.0" encoding="UTF-8" standalone="no"?>
<svg
   xmlns:dc="http://purl.org/dc/elements/1.1/"
   xmlns:cc="http://creativecommons.org/ns#"
   xmlns:rdf="http://www.w3.org/1999/02/22-rdf-syntax-ns#"
   xmlns:svg="http://www.w3.org/2000/svg"
   xmlns="http://www.w3.org/2000/svg"
   xmlns:sodipodi="http://sodipodi.sourceforge.net/DTD/sodipodi-0.dtd"
   xmlns:inkscape="http://www.inkscape.org/namespaces/inkscape"
   width="24"
   height="24"
   viewBox="0 0 24 24"
   version="1.1"
   id="svg1404"
   sodipodi:docname="superscript.svg"
   inkscape:version="0.92.4 (5da689c313, 2019-01-14)">
  <metadata
     id="metadata1410">
    <rdf:RDF>
      <cc:Work
         rdf:about="">
        <dc:format>image/svg+xml</dc:format>
        <dc:type
           rdf:resource="http://purl.org/dc/dcmitype/StillImage" />
        <dc:title></dc:title>
      </cc:Work>
    </rdf:RDF>
  </metadata>
  <defs
     id="defs1408" />
  <sodipodi:namedview
     pagecolor="#ffffff"
     bordercolor="#666666"
     borderopacity="1"
     objecttolerance="10"
     gridtolerance="10"
     guidetolerance="10"
     inkscape:pageopacity="0"
     inkscape:pageshadow="2"
     inkscape:window-width="1366"
     inkscape:window-height="705"
     id="namedview1406"
     showgrid="false"
     inkscape:zoom="11.9198"
     inkscape:cx="4.2865186"
     inkscape:cy="11.76311"
     inkscape:window-x="-8"
     inkscape:window-y="-8"
     inkscape:window-maximized="1"
     inkscape:current-layer="svg1404" />
  <path
     d="M 13.50098,18.83273 V 21 H 10.58143 L 8.70961,17.72963 8.42708,17.18457 q -0.0942,-0.1168 -0.1295,-0.27253 h -0.0353 q -0.0118,0.0389 -0.0294,0.0844 -0.0177,0.0454 -0.0412,0.10382 -0.0236,0.0584 -0.0353,0.0844 -0.11772,0.25955 -0.29431,0.57102 L 6.03735,21 H 3 V 18.83273 H 4.50687 L 6.82603,15.05624 4.64814,11.52632 H 3.03532 V 9.34607 H 6.2845 l 1.63636,2.9589 q 0.0236,0.0519 0.27077,0.54507 0.0942,0.11679 0.12949,0.27253 h 0.0353 q 0.0353,-0.1168 0.1295,-0.27253 l 0.29431,-0.54507 1.64813,-2.9589 h 3.02551 v 2.18025 h -1.47155 l -2.16612,3.46503 2.40157,3.84138 z M 21,10.02091 v 2.67339 h -6.05101 l -0.0353,-0.35039 q -0.0471,-0.36338 -0.0471,-0.59697 0,-0.83057 0.30608,-1.51839 0.30608,-0.68781 0.76521,-1.12257 0.45912,-0.43475 0.98888,-0.84354 0.52976,-0.4088 0.98888,-0.70728 0.45912,-0.29849 0.76521,-0.7008 0.30608,-0.40231 0.30608,-0.83057 0,-0.49315 -0.34729,-0.8111 -0.34728,-0.31795 -0.82995,-0.31795 -0.60039,0 -1.14192,0.50613 -0.16482,0.14275 -0.42381,0.49315 L 15.00786,4.70007 Q 15.31394,4.2199 15.74952,3.84355 16.72663,3 17.96273,3 q 1.29496,0 2.09549,0.77217 0.80052,0.77217 0.80052,2.05696 0,0.72675 -0.28842,1.3367 -0.28843,0.60995 -0.72989,0.99279 -0.44147,0.38284 -0.95945,0.75919 -0.51799,0.37635 -0.96534,0.65537 -0.44735,0.27902 -0.77109,0.66835 -0.32374,0.38933 -0.35906,0.81759 h 2.7312 v -1.03821 z"
     id="path1402"
     inkscape:connector-curvature="0"
     style="stroke-width:0.01236034" />
</svg>
